<svg width="207" height="63" viewBox="0 0 207 63" fill="none" xmlns="http://www.w3.org/2000/svg">
<g filter="url(#filter0_d_19_7)">
<rect x="11.5" y="11.5" width="184" height="40" rx="13.5" stroke="#3B72FF" stroke-width="5" shape-rendering="crispEdges"/>
</g>
<path d="M45.304 21.328H53.176V25.264H51.976V40H45.232L38.2 29.176V36.064H39.352V40H31.48V36.064H32.68V25.264H31.48V21.328H40.144L46.456 30.952V25.264H45.304V21.328ZM61.2012 40.336C58.9292 40.336 57.1532 39.744 55.8732 38.56C54.5932 37.36 53.9532 35.616 53.9532 33.328C53.9532 31.04 54.5932 29.304 55.8732 28.12C57.1532 26.92 58.9292 26.32 61.2012 26.32C63.4572 26.32 65.0812 26.912 66.0732 28.096C67.0812 29.264 67.5852 30.72 67.5852 32.464V34.192H59.8092V34.336C59.8092 34.928 59.9852 35.368 60.3372 35.656C60.6892 35.928 61.2732 36.064 62.0892 36.064C63.0652 36.064 63.9932 35.992 64.8732 35.848C65.7532 35.704 66.5212 35.52 67.1772 35.296V39.136C66.6172 39.44 65.7932 39.72 64.7052 39.976C63.6332 40.216 62.4652 40.336 61.2012 40.336ZM62.5932 31.552V31.264C62.5932 30.72 62.4732 30.328 62.2332 30.088C62.0092 29.848 61.6652 29.728 61.2012 29.728C60.7372 29.728 60.3852 29.856 60.1452 30.112C59.9212 30.352 59.8092 30.736 59.8092 31.264V31.552H62.5932ZM72.2832 40L69.1152 30.592H68.1072V26.656H75.5232V30.592H74.5152L75.3792 34.336H75.6192L77.3712 26.656H81.7872L83.5392 34.336H83.7792L84.6192 30.592H83.6112V26.656H90.5712V30.592H89.5632L86.5152 40H80.6832L79.3632 33.328H79.1232L77.8032 40H72.2832ZM97.0765 40.336C95.0605 40.336 93.1165 40.016 91.2445 39.376V35.824H95.1325V36.064C95.1325 36.832 95.6205 37.216 96.5965 37.216C97.4605 37.216 97.8925 36.92 97.8925 36.328C97.8925 36.008 97.7645 35.768 97.5085 35.608C97.2685 35.448 96.8365 35.312 96.2125 35.2L95.0125 34.984C92.5005 34.536 91.2445 33.112 91.2445 30.712C91.2445 29.32 91.7725 28.24 92.8285 27.472C93.8845 26.704 95.3085 26.32 97.1005 26.32C99.1005 26.32 100.789 26.656 102.165 27.328V30.664H98.5165V30.424C98.5165 30.104 98.4045 29.864 98.1805 29.704C97.9725 29.528 97.6605 29.44 97.2445 29.44C96.4445 29.44 96.0445 29.696 96.0445 30.208C96.0445 30.48 96.1565 30.688 96.3805 30.832C96.6045 30.976 97.0125 31.112 97.6045 31.24L98.9725 31.504C100.397 31.776 101.413 32.28 102.021 33.016C102.628 33.752 102.932 34.696 102.932 35.848C102.932 37.304 102.421 38.416 101.397 39.184C100.389 39.952 98.9485 40.336 97.0765 40.336ZM103.738 36.064H104.938V25.264H103.738V21.328H114.274C116.338 21.328 117.914 21.776 119.002 22.672C120.09 23.552 120.634 24.984 120.634 26.968C120.634 28.952 120.09 30.392 119.002 31.288C117.914 32.168 116.338 32.608 114.274 32.608H111.658V36.064H113.962V40H103.738V36.064ZM112.474 29.2C113.402 29.2 113.866 28.688 113.866 27.664V26.8C113.866 26.272 113.746 25.888 113.506 25.648C113.282 25.392 112.938 25.264 112.474 25.264H111.658V29.2H112.474ZM134.932 36.064V40H128.596V38.368C128.244 38.88 127.748 39.336 127.108 39.736C126.484 40.136 125.716 40.336 124.804 40.336C123.604 40.336 122.66 40.016 121.972 39.376C121.284 38.736 120.94 37.832 120.94 36.664C120.94 33.64 123.508 32.088 128.644 32.008C128.596 31.464 128.388 31.096 128.02 30.904C127.652 30.696 127.028 30.592 126.148 30.592C125.428 30.592 124.652 30.672 123.82 30.832C123.004 30.976 122.252 31.176 121.564 31.432V27.016C122.412 26.808 123.332 26.64 124.324 26.512C125.316 26.384 126.284 26.32 127.228 26.32C129.612 26.32 131.316 26.752 132.34 27.616C133.364 28.48 133.876 29.816 133.876 31.624V36.064H134.932ZM128.596 34.384C127.876 34.384 127.316 34.48 126.916 34.672C126.532 34.864 126.34 35.184 126.34 35.632C126.34 35.904 126.42 36.128 126.58 36.304C126.756 36.464 126.996 36.544 127.3 36.544C127.716 36.544 128.036 36.368 128.26 36.016C128.484 35.664 128.596 35.168 128.596 34.528V34.384ZM135.609 41.392H136.665V30.592H135.609V26.656H142.185V28.288C142.585 27.776 143.097 27.32 143.721 26.92C144.361 26.52 145.089 26.32 145.905 26.32C147.537 26.32 148.761 26.928 149.577 28.144C150.409 29.36 150.825 31.088 150.825 33.328C150.825 35.568 150.409 37.296 149.577 38.512C148.761 39.728 147.537 40.336 145.905 40.336C145.089 40.336 144.361 40.136 143.721 39.736C143.097 39.336 142.585 38.88 142.185 38.368V41.392H143.841V45.328H135.609V41.392ZM143.577 36.064C144.041 36.064 144.385 35.944 144.609 35.704C144.849 35.448 144.969 35.056 144.969 34.528V32.128C144.969 31.6 144.849 31.216 144.609 30.976C144.385 30.72 144.041 30.592 143.577 30.592C143.113 30.592 142.761 30.72 142.521 30.976C142.297 31.216 142.185 31.6 142.185 32.128V34.528C142.185 35.056 142.297 35.448 142.521 35.704C142.761 35.944 143.113 36.064 143.577 36.064ZM158.654 40.336C156.382 40.336 154.606 39.744 153.326 38.56C152.046 37.36 151.406 35.616 151.406 33.328C151.406 31.04 152.046 29.304 153.326 28.12C154.606 26.92 156.382 26.32 158.654 26.32C160.91 26.32 162.534 26.912 163.526 28.096C164.534 29.264 165.038 30.72 165.038 32.464V34.192H157.262V34.336C157.262 34.928 157.438 35.368 157.79 35.656C158.142 35.928 158.726 36.064 159.542 36.064C160.518 36.064 161.446 35.992 162.326 35.848C163.206 35.704 163.974 35.52 164.63 35.296V39.136C164.07 39.44 163.246 39.72 162.158 39.976C161.086 40.216 159.918 40.336 158.654 40.336ZM160.046 31.552V31.264C160.046 30.72 159.926 30.328 159.686 30.088C159.462 29.848 159.118 29.728 158.654 29.728C158.19 29.728 157.838 29.856 157.598 30.112C157.374 30.352 157.262 30.736 157.262 31.264V31.552H160.046ZM176 26.32C176.32 26.32 176.624 26.352 176.912 26.416C177.2 26.48 177.44 26.56 177.632 26.656V31.24C176.976 30.968 176.272 30.832 175.52 30.832C174.512 30.832 173.736 31.096 173.192 31.624C172.648 32.152 172.376 32.936 172.376 33.976V36.064H174.536V40H165.8V36.064H166.856V30.592H165.8V26.656H172.376V28.408C172.824 27.736 173.336 27.224 173.912 26.872C174.488 26.504 175.184 26.32 176 26.32Z" fill="#3B72FF"/>
<defs>
<filter id="filter0_d_19_7" x="0" y="0" width="207" height="63" filterUnits="userSpaceOnUse" color-interpolation-filters="sRGB">
<feFlood flood-opacity="0" result="BackgroundImageFix"/>
<feColorMatrix in="SourceAlpha" type="matrix" values="0 0 0 0 0 0 0 0 0 0 0 0 0 0 0 0 0 0 127 0" result="hardAlpha"/>
<feMorphology radius="5" operator="dilate" in="SourceAlpha" result="effect1_dropShadow_19_7"/>
<feOffset/>
<feGaussianBlur stdDeviation="2"/>
<feComposite in2="hardAlpha" operator="out"/>
<feColorMatrix type="matrix" values="0 0 0 0 0.231373 0 0 0 0 0.447059 0 0 0 0 1 0 0 0 0.4 0"/>
<feBlend mode="normal" in2="BackgroundImageFix" result="effect1_dropShadow_19_7"/>
<feBlend mode="normal" in="SourceGraphic" in2="effect1_dropShadow_19_7" result="shape"/>
</filter>
</defs>
</svg>
