<svg width="89" height="53" viewBox="0 0 89 53" fill="none" xmlns="http://www.w3.org/2000/svg">
<path d="M24.304 16.328H32.176V20.264H30.976V35H24.232L17.2 24.176V31.064H18.352V35H10.48V31.064H11.68V20.264H10.48V16.328H19.144L25.456 25.952V20.264H24.304V16.328ZM50.7132 31.064H51.6732V35H42.2652V31.064H43.7052L43.3212 29.144H40.0572L39.6732 31.064H41.1132V35H32.9052V31.064H33.8652L37.9212 16.328H46.6572L50.7132 31.064ZM40.5852 26.6H42.7932L41.8092 21.824H41.5692L40.5852 26.6ZM70.3047 16.328H77.9847V20.264H77.0247L73.4487 35H66.2727L64.0887 24.632H63.8487L61.5447 35H54.3687L50.5527 20.264H49.5927V16.328H58.4727V20.264H57.5607L58.4967 26.384H58.7367L61.0167 16.328H67.9287L70.0407 26.384H70.2807L71.2167 20.264H70.3047V16.328Z" fill="#fff"/>
</svg>
